HIERARCHY
ROOT Root
{
  OFFSET 0.0 0.0 0.0
  CHANNELS 6 Xposition Yposition Zposition Zrotation Yrotation Xrotation
  JOINT Hips
  {
    OFFSET 0.0 100.0 0.0
    CHANNELS 6 Xposition Yposition Zposition Zrotation Yrotation Xrotation
    JOINT Spine1
    {
      OFFSET 5.003913 -0.037094 -0.013727
      CHANNELS 3 Zrotation Yrotation Xrotation
      JOINT Spine2
      {
        OFFSET 7.125363 -1e-06 0.0
        CHANNELS 3 Zrotation Yrotation Xrotation
        JOINT Chest
        {
          OFFSET 7.594027 1e-06 0.0
          CHANNELS 3 Zrotation Yrotation Xrotation
          JOINT Neck1
          {
            OFFSET 26.313086 -0.460272 -0.181672
            CHANNELS 3 Zrotation Yrotation Xrotation
            JOINT Neck2
            {
              OFFSET 8.045911 0.0 0.0
              CHANNELS 3 Zrotation Yrotation Xrotation
              JOINT Head
              {
                OFFSET 6.432774 0.0 0.0
                CHANNELS 3 Zrotation Yrotation Xrotation
                JOINT HeadEnd
                {
                  OFFSET 16.169773 0.06451 0.00362
                  CHANNELS 3 Zrotation Yrotation Xrotation
                }
                JOINT Jaw
                {
                  OFFSET 0.108741 3.12938 0.002639
                  CHANNELS 3 Zrotation Yrotation Xrotation
                }
                JOINT LeftEye
                {
                  OFFSET 4.45173 8.166359 3.206392
                  CHANNELS 3 Zrotation Yrotation Xrotation
                }
                JOINT RightEye
                {
                  OFFSET 4.436895 8.135758 -3.222429
                  CHANNELS 3 Zrotation Yrotation Xrotation
                }
              }
            }
          }
          JOINT LeftShoulder
          {
            OFFSET 23.218927 5.195579 1.621656
            CHANNELS 3 Zrotation Yrotation Xrotation
            JOINT LeftArm
            {
              OFFSET 15.902118 2e-06 -2e-06
              CHANNELS 3 Zrotation Yrotation Xrotation
              JOINT LeftForeArm
              {
                OFFSET 28.739307 0.0 -1e-06
                CHANNELS 3 Zrotation Yrotation Xrotation
                JOINT LeftHand
                {
                  OFFSET 27.093981 -4e-06 0.0
                  CHANNELS 3 Zrotation Yrotation Xrotation
                  JOINT LeftHandThumb1
                  {
                    OFFSET 2.276781 3.380274 0.83384
                    CHANNELS 3 Zrotation Yrotation Xrotation
                    JOINT LeftHandThumb2
                    {
                      OFFSET 4.705309 -1e-06 -1e-06
                      CHANNELS 3 Zrotation Yrotation Xrotation
                      JOINT LeftHandThumb3
                      {
                        OFFSET 2.798515 0.0 3e-06
                        CHANNELS 3 Zrotation Yrotation Xrotation
                        JOINT LeftHandThumbEnd
                        {
                          OFFSET 3.180793 4e-06 -4e-06
                          CHANNELS 3 Zrotation Yrotation Xrotation
                        }
                      }
                    }
                  }
                  JOINT LeftHandIndex1
                  {
                    OFFSET 3.247786 2.352677 0.137192
                    CHANNELS 3 Zrotation Yrotation Xrotation
                    JOINT LeftHandIndex2
                    {
                      OFFSET 6.367095 1e-06 0.0
                      CHANNELS 3 Zrotation Yrotation Xrotation
                      JOINT LeftHandIndex3
                      {
                        OFFSET 3.662364 0.0 0.0
                        CHANNELS 3 Zrotation Yrotation Xrotation
                        JOINT LeftHandIndex4
                        {
                          OFFSET 2.329242 4e-06 -4e-06
                          CHANNELS 3 Zrotation Yrotation Xrotation
                          JOINT LeftHandIndexEnd
                          {
                            OFFSET 2.767823 1e-06 0.0
                            CHANNELS 3 Zrotation Yrotation Xrotation
                          }
                        }
                      }
                    }
                  }
                  JOINT LeftHandMiddle1
                  {
                    OFFSET 3.163612 0.945023 -0.406112
                    CHANNELS 3 Zrotation Yrotation Xrotation
                    JOINT LeftHandMiddle2
                    {
                      OFFSET 6.276789 3e-06 0.0
                      CHANNELS 3 Zrotation Yrotation Xrotation
                      JOINT LeftHandMiddle3
                      {
                        OFFSET 4.35652 -1e-06 4e-06
                        CHANNELS 3 Zrotation Yrotation Xrotation
                        JOINT LeftHandMiddle4
                        {
                          OFFSET 2.996877 0.0 8e-06
                          CHANNELS 3 Zrotation Yrotation Xrotation
                          JOINT LeftHandMiddleEnd
                          {
                            OFFSET 2.323256 3e-06 -4e-06
                            CHANNELS 3 Zrotation Yrotation Xrotation
                          }
                        }
                      }
                    }
                  }
                  JOINT LeftHandRing1
                  {
                    OFFSET 2.882606 -0.309162 0.107445
                    CHANNELS 3 Zrotation Yrotation Xrotation
                    JOINT LeftHandRing2
                    {
                      OFFSET 6.033198 0.0 4e-06
                      CHANNELS 3 Zrotation Yrotation Xrotation
                      JOINT LeftHandRing3
                      {
                        OFFSET 4.350578 3e-06 0.0
                        CHANNELS 3 Zrotation Yrotation Xrotation
                        JOINT LeftHandRing4
                        {
                          OFFSET 2.651321 2e-06 -7e-06
                          CHANNELS 3 Zrotation Yrotation Xrotation
                          JOINT LeftHandRingEnd
                          {
                            OFFSET 1.937663 1e-06 -4e-06
                            CHANNELS 3 Zrotation Yrotation Xrotation
                          }
                        }
                      }
                    }
                  }
                  JOINT LeftHandPinky1
                  {
                    OFFSET 2.865315 -1.525436 0.575687
                    CHANNELS 3 Zrotation Yrotation Xrotation
                    JOINT LeftHandPinky2
                    {
                      OFFSET 5.54936 1e-06 -8e-06
                      CHANNELS 3 Zrotation Yrotation Xrotation
                      JOINT LeftHandPinky3
                      {
                        OFFSET 3.070974 0.0 -4e-06
                        CHANNELS 3 Zrotation Yrotation Xrotation
                        JOINT LeftHandPinky4
                        {
                          OFFSET 1.549672 1e-06 0.0
                          CHANNELS 3 Zrotation Yrotation Xrotation
                          JOINT LeftHandPinkyEnd
                          {
                            OFFSET 1.952123 0.0 0.0
                            CHANNELS 3 Zrotation Yrotation Xrotation
                          }
                        }
                      }
                    }
                  }
                }
              }
            }
          }
          JOINT RightShoulder
          {
            OFFSET 23.161716 5.296122 -1.380114
            CHANNELS 3 Zrotation Yrotation Xrotation
            JOINT RightArm
            {
              OFFSET -16.027195 -2e-06 1.1e-05
              CHANNELS 3 Zrotation Yrotation Xrotation
              JOINT RightForeArm
              {
                OFFSET -28.736639 4e-06 2e-06
                CHANNELS 3 Zrotation Yrotation Xrotation
                JOINT RightHand
                {
                  OFFSET -27.133619 6e-06 0.0
                  CHANNELS 3 Zrotation Yrotation Xrotation
                  JOINT RightHandThumb1
                  {
                    OFFSET -2.274328 -3.351035 -0.83067
                    CHANNELS 3 Zrotation Yrotation Xrotation
                    JOINT RightHandThumb2
                    {
                      OFFSET -4.703594 -3e-06 2e-06
                      CHANNELS 3 Zrotation Yrotation Xrotation
                      JOINT RightHandThumb3
                      {
                        OFFSET -2.794935 -4e-06 -3e-06
                        CHANNELS 3 Zrotation Yrotation Xrotation
                        JOINT RightHandThumbEnd
                        {
                          OFFSET -3.183852 4e-06 1e-06
                          CHANNELS 3 Zrotation Yrotation Xrotation
                        }
                      }
                    }
                  }
                  JOINT RightHandIndex1
                  {
                    OFFSET -3.253496 -2.33755 -0.127667
                    CHANNELS 3 Zrotation Yrotation Xrotation
                    JOINT RightHandIndex2
                    {
                      OFFSET -6.344434 0.0 0.0
                      CHANNELS 3 Zrotation Yrotation Xrotation
                      JOINT RightHandIndex3
                      {
                        OFFSET -3.654871 0.0 -8e-06
                        CHANNELS 3 Zrotation Yrotation Xrotation
                        JOINT RightHandIndex4
                        {
                          OFFSET -2.327586 -1e-06 0.0
                          CHANNELS 3 Zrotation Yrotation Xrotation
                          JOINT RightHandIndexEnd
                          {
                            OFFSET -2.770001 3e-06 8e-06
                            CHANNELS 3 Zrotation Yrotation Xrotation
                          }
                        }
                      }
                    }
                  }
                  JOINT RightHandMiddle1
                  {
                    OFFSET -3.168223 -0.944764 0.411762
                    CHANNELS 3 Zrotation Yrotation Xrotation
                    JOINT RightHandMiddle2
                    {
                      OFFSET -6.266691 -1e-06 -4e-06
                      CHANNELS 3 Zrotation Yrotation Xrotation
                      JOINT RightHandMiddle3
                      {
                        OFFSET -4.348901 0.0 0.0
                        CHANNELS 3 Zrotation Yrotation Xrotation
                        JOINT RightHandMiddle4
                        {
                          OFFSET -3.00024 2e-06 -4e-06
                          CHANNELS 3 Zrotation Yrotation Xrotation
                          JOINT RightHandMiddleEnd
                          {
                            OFFSET -2.321477 -4e-06 -4e-06
                            CHANNELS 3 Zrotation Yrotation Xrotation
                          }
                        }
                      }
                    }
                  }
                  JOINT RightHandRing1
                  {
                    OFFSET -2.885654 0.293261 -0.119232
                    CHANNELS 3 Zrotation Yrotation Xrotation
                    JOINT RightHandRing2
                    {
                      OFFSET -6.032835 -1e-06 -4e-06
                      CHANNELS 3 Zrotation Yrotation Xrotation
                      JOINT RightHandRing3
                      {
                        OFFSET -4.33881 0.0 -4e-06
                        CHANNELS 3 Zrotation Yrotation Xrotation
                        JOINT RightHandRing4
                        {
                          OFFSET -2.654903 -4e-06 -4e-06
                          CHANNELS 3 Zrotation Yrotation Xrotation
                          JOINT RightHandRingEnd
                          {
                            OFFSET -1.935122 0.0 4e-06
                            CHANNELS 3 Zrotation Yrotation Xrotation
                          }
                        }
                      }
                    }
                  }
                  JOINT RightHandPinky1
                  {
                    OFFSET -2.866241 1.503904 -0.60527
                    CHANNELS 3 Zrotation Yrotation Xrotation
                    JOINT RightHandPinky2
                    {
                      OFFSET -5.553177 -2e-06 0.0
                      CHANNELS 3 Zrotation Yrotation Xrotation
                      JOINT RightHandPinky3
                      {
                        OFFSET -3.062664 -1e-06 -4e-06
                        CHANNELS 3 Zrotation Yrotation Xrotation
                        JOINT RightHandPinky4
                        {
                          OFFSET -1.546529 2e-06 4e-06
                          CHANNELS 3 Zrotation Yrotation Xrotation
                          JOINT RightHandPinkyEnd
                          {
                            OFFSET -1.952341 0.0 -4e-06
                            CHANNELS 3 Zrotation Yrotation Xrotation
                          }
                        }
                      }
                    }
                  }
                }
              }
            }
          }
        }
      }
    }
    JOINT LeftLeg
    {
      OFFSET -8.443107 2.567604 10.043214
      CHANNELS 3 Zrotation Yrotation Xrotation
      JOINT LeftShin
      {
        OFFSET 43.229198 1e-06 -1e-06
        CHANNELS 3 Zrotation Yrotation Xrotation
        JOINT LeftFoot
        {
          OFFSET 42.298611 1e-06 1e-06
          CHANNELS 3 Zrotation Yrotation Xrotation
          JOINT LeftToeBase
          {
            OFFSET 14.165858 1e-06 0.0
            CHANNELS 3 Zrotation Yrotation Xrotation
            JOINT LeftToeEnd
            {
              OFFSET 6.7141 -0.234461 0.0
              CHANNELS 3 Zrotation Yrotation Xrotation
            }
          }
        }
      }
    }
    JOINT RightLeg
    {
      OFFSET -8.303923 2.592729 -10.047278
      CHANNELS 3 Zrotation Yrotation Xrotation
      JOINT RightShin
      {
        OFFSET -43.369682 0.0 1e-06
        CHANNELS 3 Zrotation Yrotation Xrotation
        JOINT RightFoot
        {
          OFFSET -42.260784 4e-06 2e-06
          CHANNELS 3 Zrotation Yrotation Xrotation
          JOINT RightToeBase
          {
            OFFSET -14.222245 -2e-06 -1e-06
            CHANNELS 3 Zrotation Yrotation Xrotation
            JOINT RightToeEnd
            {
              OFFSET -6.660062 0.232574 -2e-06
              CHANNELS 3 Zrotation Yrotation Xrotation
            }
          }
        }
      }
    }
  }
}
MOTION
Frames: 4
Frame Time: 0.03333333333333333
0.0 0.0 0.0 0.0 -0.0 0.0 9.631118 97.159668 224.95842 89.62365 2.44855 -78.08728 6.847452 -0.472989 0.438562 -8.852556 -0.739826 2.078126 16.131699 -1.007898 -0.601094 16.476528 2.240552 2.543836 -2.544441 -0.609896 -4.516176 -42.800915 -0.424024 -8.919089 7e-06 0.0 -0.0 0.071604 0.027458 0.091481 0.037059 0.014905 0.073034 -0.004171 0.05054 0.100591 -106.695351 -76.511002 119.877701 38.123215 -58.372841 18.109383 57.170296 0.11781 0.195342 23.254084 18.939348 32.513363 17.636625 -26.322725 52.411182 -19.466656 -14.395598 29.410381 1e-06 -8.774821 -1e-06 16.105604 -18.992971 6.281112 -0.609775 -1.795651 -3.889325 -4.807087 -11.046807 -2.937849 4e-06 -20.976013 1e-06 -5.019969 -25.033548 -4.031878 5e-06 -0.0 0.0 -10.634533 -5.68697 -3.565587 10.573276 -17.922945 -3.113897 4e-06 -13.821202 2e-06 -0.501778 -31.181498 -4.027012 -12.638539 -59.979763 7.982399 -13.982709 -7.150193 -2.875043 13.772727 -8.401491 -3.218241 0.347734 -34.21154 0.77166 -0.963031 -17.733364 2.621023 1e-06 0.0 -0.0 -17.346411 -20.095211 -4.20178 21.757555 -1.638374 3.866424 2e-06 -6.338822 2e-06 -1.697584 -22.591738 -6.194004 -2e-06 -3e-06 -3e-06 60.352036 -84.549248 134.799545 33.437878 -64.583588 13.833536 50.934669 0.894382 0.914341 16.805662 26.650408 36.058559 22.182112 -20.375887 49.9333 -16.701817 -16.743534 28.47653 -3e-06 -12.690603 -0.0 15.672624 -17.993999 3.001342 -0.105919 -1.513858 -4.275883 -5.039042 -5.612872 -2.953554 7e-06 -11.020523 -3e-06 -6.111299 -15.895332 -3.840469 -1e-06 -0.0 -1e-06 -10.283369 -5.680286 -4.341838 11.028294 -11.302406 -2.372633 -1.384267 -14.238579 -6.32012 -0.625434 -26.924187 -3.8276 -4.900149 -49.431503 -2.977635 -13.708526 -7.363475 -3.720939 18.141153 -14.052739 -3.242676 1e-05 -18.78727 -3e-06 -0.429711 -8.456043 2.555504 -1e-06 -0.0 0.0 -15.923532 -20.094479 -5.473584 30.419214 -7.190827 1.735922 -2e-06 -8.162924 1e-06 -1.861901 -22.861465 -6.167939 1e-06 -3e-06 -1e-06 145.683762 2.640386 -9.347571 36.425377 0.113599 -0.486133 -76.068001 3.76518 -5.750581 -8.799644 1.44149 2.097288 -0.999998 -0.0 -0.0 16.557014 1.056665 -10.07725 18.767466 -0.105967 -0.098 -76.649902 -9.592443 -12.919193 -19.22526 0.997156 1.645403 -1.000001 -0.0 0.0 
0.0 0.0 0.0 0.0 -0.0 0.0 9.19324 97.939316 218.470474 90.423965 1.932877 -78.200066 6.367394 -0.32722 0.30778 -8.954247 -0.693778 2.212574 15.939225 -0.93115 -0.624383 17.568256 3.159624 2.655937 -2.540089 -0.623221 -4.702845 -41.166115 -0.03352 -8.706678 6e-06 -0.0 0.0 0.097689 0.012639 0.016161 0.00222 -0.022262 -0.015157 -0.004006 0.05559 0.035546 -110.279465 -76.059311 124.01651 35.263336 -57.548443 20.78723 57.798019 0.136179 0.219261 24.171564 19.174376 31.828531 17.636631 -26.322733 52.411194 -19.466658 -14.395596 29.410385 -1e-06 -8.774821 -2e-06 15.873688 -18.842882 6.282355 -0.609776 -1.795654 -3.889328 -4.807086 -11.046809 -2.937851 3e-06 -20.976017 -1e-06 -5.019968 -25.033558 -4.031879 6e-06 0.0 0.0 -10.634533 -5.686967 -3.565588 10.573276 -17.922955 -3.1139 4e-06 -13.821209 1e-06 -0.501773 -31.181505 -4.027016 -12.084783 -59.574818 7.564435 -13.982712 -7.150197 -2.875045 13.772727 -8.401491 -3.218241 0.347738 -34.211552 0.771656 -0.963028 -17.73337 2.62102 0.0 -0.0 -0.0 -17.346413 -20.095213 -4.201786 21.757555 -1.63838 3.866426 -0.0 -6.338823 3e-06 -1.697587 -22.591745 -6.194005 -0.0 -5e-06 -0.0 61.128822 -84.34494 133.780472 33.518318 -65.327827 14.168615 50.036629 1.039079 0.870596 17.27136 27.01046 35.92593 22.182114 -20.375895 49.933327 -16.701811 -16.743528 28.47653 -2e-06 -12.690601 -2e-06 15.88505 -17.946699 2.79222 -0.10592 -1.513855 -4.275881 -5.039042 -5.612875 -2.953556 5e-06 -11.020525 -3e-06 -6.1113 -15.895334 -3.840471 0.0 1e-06 -0.0 -10.283373 -5.680288 -4.341838 11.028294 -11.302406 -2.372633 -1.38427 -14.238581 -6.320121 -0.625436 -26.924189 -3.827603 -4.874625 -49.492626 -3.120522 -13.708525 -7.363477 -3.720941 18.141148 -14.052737 -3.242673 6e-06 -18.78727 -1e-06 -0.429711 -8.456043 2.555504 -1e-06 -0.0 -0.0 -15.923538 -20.094484 -5.473584 30.41921 -7.190823 1.735928 -1e-06 -8.162925 0.0 -1.861903 -22.861467 -6.167942 -0.0 -3e-06 -1e-06 150.870728 2.887056 -7.369408 30.393467 0.103294 -0.363126 -73.254478 4.324245 -4.803508 -7.659341 1.343607 2.017992 -0.999999 -0.0 -0.0 15.135242 1.226393 -11.096918 26.224466 -0.215296 0.188042 -66.132477 -7.70853 -13.596408 -25.994141 1.170735 1.646367 -1.000002 1e-06 0.0 
0.0 0.0 0.0 0.0 -0.0 0.0 8.6805 98.264793 211.344223 91.477165 0.975116 -78.436317 6.204398 -0.198673 0.113434 -8.824642 -0.581961 1.844063 15.812401 -0.703298 -0.673119 18.229473 4.024909 2.76668 -2.567432 -0.7308 -4.407194 -39.444912 0.302974 -8.171474 6e-06 0.0 0.0 0.095502 0.019855 0.016147 -0.005811 -0.082757 -0.010694 0.01877 0.127573 0.029886 -114.2528 -75.795601 128.356079 32.192661 -56.040932 24.024733 58.760048 0.168125 0.185352 23.859362 18.93185 31.46756 17.636627 -26.322733 52.41119 -19.46666 -14.395598 29.410385 -2e-06 -8.774822 -3e-06 15.646026 -18.657967 6.341128 -0.609776 -1.795653 -3.889327 -4.807088 -11.046811 -2.937851 3e-06 -20.976015 3e-06 -5.019973 -25.033556 -4.031878 7e-06 -0.0 2e-06 -10.634532 -5.686969 -3.565586 10.573272 -17.922951 -3.1139 2e-06 -13.821209 1e-06 -0.501778 -31.181505 -4.027016 -12.00762 -59.652256 7.577086 -13.982714 -7.150198 -2.875043 13.772731 -8.401493 -3.218241 0.347735 -34.211544 0.771658 -0.963027 -17.73337 2.621021 0.0 0.0 -0.0 -17.34642 -20.095219 -4.201779 21.757563 -1.638374 3.866428 1e-06 -6.338824 3e-06 -1.697592 -22.591747 -6.194004 2e-06 -4e-06 -0.0 54.364902 -83.265968 140.312851 31.497513 -64.884956 15.825844 50.906681 1.077128 0.812248 18.059486 27.389059 35.31958 22.182123 -20.375895 49.933315 -16.701815 -16.74353 28.476528 -2e-06 -12.6906 -2e-06 16.0215 -18.078447 2.717886 -0.10592 -1.513853 -4.27588 -5.039039 -5.612869 -2.953556 6e-06 -11.020524 -2e-06 -6.111297 -15.895334 -3.84047 -0.0 -0.0 -0.0 -10.283369 -5.680286 -4.341839 11.028293 -11.302406 -2.372633 -1.384267 -14.238579 -6.320122 -0.625433 -26.924189 -3.827602 -5.026272 -49.846081 -3.140027 -13.708524 -7.363475 -3.720939 18.141148 -14.052739 -3.242673 8e-06 -18.78727 -1e-06 -0.429713 -8.456045 2.555504 -1e-06 -0.0 0.0 -15.923534 -20.094482 -5.473586 30.41921 -7.190824 1.735928 0.0 -8.162925 0.0 -1.8619 -22.861467 -6.167942 -0.0 -4e-06 -2e-06 156.685684 2.585847 -4.53547 29.453405 0.248198 -0.382159 -75.731995 1.917682 -0.407819 -7.037839 1.256408 2.083763 -0.999999 0.0 -0.0 10.248926 0.888599 -11.896795 39.266815 -0.398852 0.476595 -56.423992 -7.142313 -13.476307 -18.43701 0.955276 1.740503 -1.000004 -0.0 -1e-06 
0.0 0.0 0.0 0.0 -0.0 0.0 8.129114 97.951576 204.768402 91.151192 0.229647 -78.16172 6.5853 -0.924753 -0.209569 -8.677381 -0.74935 1.403986 16.082197 -0.819684 -1.203809 17.847637 5.03572 2.593919 -2.512769 -0.894975 -3.556256 -39.364803 0.19404 -7.674229 7e-06 -0.0 -0.0 0.076073 0.039574 0.089979 0.063884 -0.066614 0.069457 0.098928 0.14733 0.097146 -117.304153 -76.122253 131.222015 30.005524 -54.052364 26.854532 59.859253 0.192989 0.064681 22.697039 18.252359 32.951199 17.636635 -26.322746 52.411213 -19.466663 -14.395598 29.410395 -2e-06 -8.774822 -4e-06 15.629607 -18.585028 6.23481 -0.609776 -1.79565 -3.889328 -4.80709 -11.046812 -2.937849 4e-06 -20.976019 3e-06 -5.019974 -25.033562 -4.031879 8e-06 -1e-06 -0.0 -10.634538 -5.686972 -3.565588 10.573277 -17.922956 -3.113899 3e-06 -13.821213 3e-06 -0.501779 -31.181511 -4.027015 -11.790231 -59.606667 7.301411 -13.982718 -7.150197 -2.875044 13.772735 -8.401496 -3.218244 0.347737 -34.211555 0.771656 -0.963032 -17.733376 2.621022 0.0 -0.0 0.0 -17.346424 -20.095219 -4.201782 21.757565 -1.638377 3.866429 -2e-06 -6.338825 2e-06 -1.697586 -22.591745 -6.194009 -2e-06 -3e-06 -2e-06 48.212551 -80.881905 146.167404 28.991282 -63.477695 16.954439 53.058632 0.725539 0.711019 19.151899 26.683395 35.125221 22.182129 -20.375904 49.933327 -16.701817 -16.743534 28.476538 -4e-06 -12.690603 -1e-06 16.240805 -18.493902 2.605549 -0.10592 -1.513856 -4.275882 -5.039042 -5.612872 -2.953558 4e-06 -11.020527 -2e-06 -6.111298 -15.89533 -3.840472 0.0 1e-06 1e-06 -10.283373 -5.680291 -4.341841 11.028296 -11.302406 -2.372633 -1.384269 -14.238583 -6.320122 -0.62544 -26.924194 -3.8276 -5.075725 -50.229771 -3.364219 -13.708527 -7.363479 -3.72094 18.141157 -14.05274 -3.242677 6e-06 -18.78727 -1e-06 -0.429712 -8.456043 2.555505 1e-06 -0.0 -0.0 -15.923539 -20.09449 -5.473588 30.419222 -7.190831 1.735928 1e-06 -8.162929 0.0 -1.861904 -22.861473 -6.16794 -0.0 -3e-06 -1e-06 161.084503 3.275881 -2.124451 31.540281 0.132561 -0.510933 -80.855812 0.107701 1.632655 -6.521778 1.27364 2.069538 -0.999999 -1e-06 0.0 2.558288 -0.855169 -12.243679 54.728321 -0.550872 0.530416 -57.514469 -7.356554 -13.141738 -10.816145 0.810647 1.845082 -1.000002 -0.0 -0.0 
